<?xml version="1.0" encoding="UTF-8"?>
<svg id="Layer_2" data-name="Layer 2" xmlns="http://www.w3.org/2000/svg" viewBox="0 0 251.65 446.02">
  <defs>
    <style>
      .cls-1 {
        fill: #4a69ff;
      }

      .cls-2, .cls-3, .cls-4, .cls-5, .cls-6, .cls-7, .cls-8, .cls-9 {
        fill: none;
      }

      .cls-2, .cls-3, .cls-4, .cls-5, .cls-7, .cls-8 {
        stroke: #1c324c;
      }

      .cls-2, .cls-4, .cls-5, .cls-6, .cls-7, .cls-9 {
        stroke-miterlimit: 10;
      }

      .cls-2, .cls-6, .cls-9 {
        stroke-width: 2.76px;
      }

      .cls-3 {
        stroke-width: 3.08px;
      }

      .cls-3, .cls-6, .cls-7, .cls-8 {
        stroke-linecap: round;
      }

      .cls-3, .cls-8 {
        stroke-linejoin: round;
      }

      .cls-4 {
        stroke-width: 3.08px;
      }

      .cls-5, .cls-7, .cls-8 {
        stroke-width: 3.08px;
      }

      .cls-10 {
        fill: #dbe5ef;
      }

      .cls-11 {
        fill: #1c324c;
      }

      .cls-6, .cls-9 {
        stroke: #e0eeff;
      }

      .cls-12 {
        fill: #e0eeff;
      }
    </style>
  </defs>
  <g id="Layer_1-2" data-name="Layer 1">
    <path class="cls-12" d="M1.31,26.81V12.67C1.31,6.41,6.41,1.31,12.67,1.31H238.98c6.27,0,11.36,5.1,11.36,11.36v14.14H1.31Z"/>
    <path class="cls-12" d="M12.67,208.95c-6.27,0-11.37-5.1-11.37-11.36V26.34H250.34V197.59c0,6.27-5.1,11.36-11.36,11.36H12.67Z"/>
    <g>
      <rect class="cls-4" x="1.54" y="1.54" width="248.57" height="207.18" rx="11.13" ry="11.13"/>
      <line class="cls-4" x1="1.54" y1="26.58" x2="250.11" y2="26.58"/>
    </g>
    <circle class="cls-11" cx="23.33" cy="14.06" r="4.02"/>
    <path class="cls-11" d="M38.3,18.08c2.22,0,4.02-1.8,4.02-4.02s-1.8-4.02-4.02-4.02-4.02,1.8-4.02,4.02,1.8,4.02,4.02,4.02Z"/>
    <path class="cls-11" d="M53.26,18.08c2.22,0,4.02-1.8,4.02-4.02s-1.8-4.02-4.02-4.02-4.02,1.8-4.02,4.02,1.8,4.02,4.02,4.02Z"/>
    <g>
      <path class="cls-1" d="M58.28,107.45c-1.55-.01-2.99-.6-4.08-1.66-1.1-1.09-1.71-2.54-1.72-4.08l-.35-51.62c-.02-3.19,2.55-5.8,5.74-5.82l49.33-.33c1.53,0,2.97,.59,4.06,1.67,1.1,1.09,1.71,2.54,1.72,4.08l.35,51.62c.01,1.54-.58,3-1.67,4.1-1.08,1.1-2.53,1.71-4.08,1.72l-49.3,.34h-.01Z"/>
      <rect class="cls-2" x="52.5" y="44.29" width="60.46" height="62.79" rx="5.59" ry="5.59" transform="translate(-.51 .56) rotate(-.39)"/>
      <g>
        <path class="cls-12" d="M81.13,78.02l-8.45,15.66c-1.65,2.84-5.81,.31-4.04-2.47,0,0,10.05-14.68,10.05-14.68,1.03-1.46,3.27-.09,2.44,1.49h0Z"/>
        <circle class="cls-9" cx="85.32" cy="68.4" r="9.48"/>
      </g>
      <path class="cls-1" d="M144.45,107.45c-3.17,0-5.76-2.58-5.78-5.75l-.35-51.62c-.01-1.54,.58-3,1.67-4.1,1.09-1.1,2.53-1.71,4.08-1.72l49.29-.33c1.57,0,3.01,.59,4.1,1.67,1.1,1.09,1.72,2.54,1.72,4.08l.35,51.62c.01,1.54-.58,3-1.67,4.1-1.08,1.1-2.53,1.71-4.08,1.72l-49.29,.34h-.03Z"/>
      <rect class="cls-2" x="138.69" y="44.29" width="60.46" height="62.79" rx="5.59" ry="5.59" transform="translate(-.51 1.14) rotate(-.39)"/>
      <path class="cls-9" d="M183.83,82.94c.76,.78,1.17,1.94,1.1,3.12-.08,1.13-.57,2.14-1.41,2.81-3.48,2.81-8.37,4.29-13.44,4.06h-.16c-2.45-.12-4.87-.65-7.15-1.58-2.37-.95-4.45-2.3-6.18-3.97-3.5-3.39-5.3-7.79-5.09-12.4s2.41-8.82,6.2-11.88c3.97-3.2,9.18-4.91,14.3-4.68,4.43,.2,8.44,1.84,11.3,4.59,2.06,2,3.13,4.6,3,7.34s-1.42,5.23-3.66,7.03l-2.62,2.12c-.2,.17-.46,.45-.47,.81s.21,.65,.4,.84c.34,.32,.44,.41,1.2,.56h.05c.78,.18,1.83,.41,2.63,1.21Z"/>
      <path class="cls-12" d="M177.85,66.68c-.07,1.47-1.32,2.61-2.78,2.54s-2.6-1.32-2.53-2.79,1.3-2.6,2.78-2.53,2.6,1.32,2.53,2.78Z"/>
      <path class="cls-12" d="M172.35,84.98c-.1,2.21-1.97,3.9-4.16,3.8-2.21-.1-3.91-1.96-3.81-4.16,.1-2.2,1.97-3.9,4.18-3.8s3.9,1.97,3.8,4.16Z"/>
      <path class="cls-12" d="M162.6,79.87c-.07,1.47-1.3,2.6-2.78,2.53s-2.6-1.3-2.53-2.78,1.32-2.6,2.78-2.53,2.6,1.32,2.53,2.78Z"/>
      <path class="cls-12" d="M162.33,71.3c-.07,1.46-1.3,2.6-2.78,2.53s-2.6-1.32-2.53-2.78,1.32-2.6,2.78-2.53,2.6,1.3,2.53,2.78Z"/>
      <path class="cls-12" d="M169.22,66.29c-.07,1.47-1.32,2.61-2.78,2.54s-2.61-1.32-2.54-2.79,1.32-2.6,2.79-2.53,2.6,1.32,2.53,2.78Z"/>
      <path class="cls-1" d="M58.26,191.37c-3.17,0-5.76-2.58-5.79-5.75l-.35-51.62c-.02-3.19,2.55-5.8,5.74-5.82l49.33-.33c1.53,0,2.97,.59,4.06,1.67,1.1,1.09,1.71,2.54,1.72,4.08l.35,51.62c.01,1.54-.58,3-1.67,4.1-1.08,1.1-2.53,1.71-4.08,1.72l-49.29,.34h-.03Z"/>
      <rect class="cls-2" x="52.5" y="128.21" width="60.46" height="62.79" rx="5.59" ry="5.59" transform="translate(-1.08 .56) rotate(-.39)"/>
      <g>
        <line class="cls-6" x1="82.88" y1="172.72" x2="82.7" y2="146.76"/>
        <path class="cls-6" d="M72.35,152.02l-.02-2.58c-.01-1.58,1.26-2.86,2.83-2.87l7.53-.05"/>
        <path class="cls-6" d="M93.12,151.88l-.02-2.58c-.01-1.58-1.3-2.84-2.87-2.83l-7.53,.05"/>
        <line class="cls-6" x1="78.91" y1="172.75" x2="87.17" y2="172.69"/>
      </g>
      <path class="cls-1" d="M144.45,191.37c-3.17,0-5.76-2.58-5.78-5.75l-.35-51.62c-.01-1.54,.58-3,1.67-4.1,1.09-1.1,2.53-1.71,4.08-1.72l49.29-.33c1.56,0,3.01,.59,4.1,1.67,1.1,1.09,1.71,2.54,1.72,4.08l.35,51.62c.01,1.54-.58,3-1.67,4.1-1.08,1.1-2.53,1.71-4.08,1.72l-49.29,.34h-.03Z"/>
      <rect class="cls-2" x="138.69" y="128.21" width="60.46" height="62.79" rx="5.59" ry="5.59" transform="translate(-1.07 1.14) rotate(-.39)"/>
      <g>
        <rect class="cls-9" x="155.07" y="141.6" width="27.69" height="36.03" rx="4.68" ry="4.68" transform="translate(8.65 327.9) rotate(-89.78)"/>
        <path class="cls-9" d="M151.28,170.65l11.4-13.11c.35-.4,.96-.41,1.32-.03l7.13,7.59c.37,.39,.99,.37,1.34-.04l2.45-2.94c.34-.4,.94-.43,1.32-.06l9.68,9.63"/>
        <circle class="cls-9" cx="177.97" cy="153.88" r="3.16"/>
      </g>
    </g>
    <g>
      <g>
        <ellipse class="cls-10" cx="127.93" cy="437.6" rx="83.83" ry="8.42"/>
        <g>
          <path class="cls-1" d="M155.21,437.83c-4.94,0-9.92-.41-14.81-1.22-1.37-.23-2.62-.76-3.63-1.53-3.66-2.79-2.92-7.27-2.56-9.42v-.08c.68-4.01,.7-8.18,.72-12.23v-.09c.01-2.73,.03-5.54,.23-8.3,.87-11.52,.11-20.62-.51-27.93-.19-2.23-.41-4.45-.66-6.61-.21-1.81,.33-3.58,1.51-4.96,1.19-1.39,2.86-2.19,4.7-2.26l3.38-.12h.21c3.43,0,6.49,2.3,7.45,5.58,.42,1.45,.8,2.95,1.14,4.48,1.4,6.37,1.59,11.36,1.69,17.23,.14,8.13,.08,16.58-.19,25.11l-.03,.89c1.52-.3,3.1-.46,4.69-.46,4.61,0,9.16,1.33,12.81,3.74,3.52,2.32,5.53,5.11,5.98,8.28,.15,1.03,.08,2.07-.19,3-1.4,4.92-6.94,5.68-9.61,6.05-4.08,.56-8.22,.84-12.33,.84Z"/>
          <path class="cls-1" d="M103.93,438.99c-3.15,0-7.21-.38-13.54-1.01-6.94-.69-10.05-1.09-11.28-3.26-.7-1.22-.7-2.61-.7-5.38,0-3.38,.52-5.97,.68-6.68,.57-2.56,1.74-13.27,3.87-32.71l.05-.49c.7-6.38,1.19-12.98,1.46-19.62,.1-2.43,1.23-4.71,3.11-6.25,1.52-1.25,3.45-1.94,5.43-1.94,.43,0,.87,.03,1.3,.1l.42,.07c4.94,.76,8.59,4.94,8.68,9.93,.12,6.76-.15,13.19-.81,19.12-.05,.48-.12,1.1-.21,1.85l-.05,.44c-.29,2.49-.77,6.67-1.38,12.52-.36,3.38-.71,6.9-1.05,10.48l-.1,1.09c.1,0,.2,0,.29,0,4.38,0,8.23,1.02,11.42,3.04,1.86,1.18,5.28,3.35,6.22,7.44,.21,.93,.76,4.17-1.1,6.91-.84,1.24-2.49,2.81-7.78,3.91-1.46,.3-3.03,.45-4.94,.45Z"/>
          <path class="cls-1" d="M183.51,341.17c-1.42,.24-2.9,.14-4.27-.31-2.53-.82-4.56-2.7-5.56-5.18-.24-.62-.42-1.23-.52-1.83-.6-3.51,.94-7.05,3.93-9,10.83-7.09,20.22-15.83,27.91-25.97,3.79-5.01,7.19-10.4,10.1-16.02,.23-.45,.5-.88,.81-1.28l-.09-.12,1.01-.92c-1.38-1.93-2.95-4.91-2.94-8.44,0-2.74,.99-5.36,1.85-7.34,.81-1.85,1.78-3.73,3.44-4.98,.72-.55,1.62-.94,2.53-1.1,1.24-.21,2.42,.03,3.31,.69,1.61,1.18,1.92,3.37,1.7,4.87-.05,.34-.1,.67-.16,.98,1.46-2.06,3.55-3.66,5.88-4.46,.56-.19,1.16-.35,1.76-.45,3.28-.56,6.78,.29,9.36,2.27,3.16,2.43,5.04,6.55,4.91,10.76-.12,3.95-1.94,7.9-5,10.84-2.76,2.66-6.6,4.52-10.81,5.24-.59,.1-1.17,.14-1.74,.13l-.29,.83h-.07c-6.05,12.9-13.46,23.9-21.43,31.82-5.5,5.46-12.4,10.75-12.46,10.8-3.12,2.39-6.45,4.71-9.88,6.88-1.01,.64-2.11,1.06-3.28,1.26Z"/>
          <path class="cls-5" d="M217.12,280.59c-.73,.66-1.36,1.46-1.83,2.38-2.59,5.01-5.9,10.48-10.12,16.05-9.24,12.18-19.54,20.5-27.96,26.02-2.96,1.94-4.41,5.41-3.83,8.78,.1,.6,.27,1.19,.51,1.78,2.04,5.07,8.17,7.05,12.79,4.12,3.1-1.96,6.43-4.24,9.89-6.89,0,0,6.9-5.28,12.41-10.76,9.99-9.92,17.02-22.44,21.41-31.8,.14-.3,.26-.61,.37-.92"/>
          <path class="cls-8" d="M230.76,289.35c.61,.02,1.24-.02,1.86-.12,3.97-.66,7.8-2.4,10.7-5.19,2.9-2.79,4.81-6.67,4.93-10.69,.13-4.02-1.63-8.13-4.82-10.58-3.04-2.34-7.28-3.04-10.92-1.79-2.74,.94-5.08,2.96-6.47,5.49-.25,.9-.59,1.78-1.05,2.62,.24-.91,.59-1.79,1.05-2.62,.21-.74,.36-1.49,.47-2.26,.25-1.71-.22-3.64-1.62-4.67-1.61-1.19-3.99-.8-5.58,.41-1.6,1.21-2.56,3.06-3.36,4.89-1,2.3-1.83,4.75-1.84,7.26-.01,3.05,1.2,5.99,3.02,8.48"/>
          <path class="cls-7" d="M147.86,418.73c7.23-3.84,16.54-3.39,23.37,1.12,2.86,1.89,5.38,4.54,5.89,8.13,.14,.97,.09,1.96-.18,2.9-1.22,4.28-5.55,5.36-9.43,5.89-8.97,1.22-18.13,1.1-27.07-.38-1.28-.21-2.5-.7-3.53-1.48-3.58-2.73-2.83-7.06-2.47-9.26,1.12-6.8,.43-13.79,.95-20.66,.87-11.53,.09-20.78-.51-27.96-.2-2.4-.43-4.62-.67-6.62-.43-3.63,2.35-6.85,6-6.97l3.31-.11c3.45-.12,6.54,2.11,7.5,5.42,.39,1.36,.78,2.86,1.14,4.47,1.39,6.29,1.58,11.23,1.68,17.18,.12,6.92,.13,15.76-.22,26.18"/>
          <path class="cls-7" d="M90.46,418.98c2.59-.8,12.78-3.66,20.94,1.49,1.81,1.14,5.2,3.28,6.12,7.3,.15,.66,.82,3.96-1.07,6.74-.75,1.1-2.3,2.71-7.64,3.82-4.01,.83-8.86,.38-18.41-.57-6.59-.65-9.91-1.02-11.11-3.14-.67-1.18-.67-2.55-.67-5.28,0-3.61,.6-6.3,.67-6.62,.58-2.6,1.7-12.81,3.93-33.23,.55-5.01,1.14-11.64,1.46-19.64,.2-4.96,4.68-8.64,9.59-7.88,.14,.02,.28,.04,.42,.06,4.82,.75,8.41,4.85,8.5,9.72,.14,8.11-.29,14.42-.8,19.09-.24,2.14-.83,6.98-1.65,14.82-.52,4.96-.91,9.05-1.17,11.82"/>
          <rect class="cls-1" x="51.57" y="246.46" width="141.45" height="129.78" rx="23.91" ry="23.91"/>
          <rect class="cls-5" x="51.79" y="246.68" width="141.01" height="129.34" rx="23.69" ry="23.69"/>
          <path class="cls-11" d="M164.32,280.9c-3.27-3.37-8.01-5.35-12.71-5.26s-9.11,2.09-12.25,5.41c-1.75,1.85,1.05,4.65,2.8,2.8,.98-1.03,1.64-1.54,2.8-2.25,2.01-1.22,4.29-1.95,6.65-2s4.75,.56,6.84,1.75c1.32,.75,2.03,1.28,3.07,2.35,1.78,1.83,4.57-.97,2.8-2.8h0Z"/>
          <path class="cls-11" d="M98.69,283.7c1.02-1.05,1.7-1.56,2.96-2.29,2.11-1.22,4.5-1.86,6.95-1.81,2.32,.05,4.56,.74,6.54,1.93,1.22,.73,1.9,1.26,2.9,2.31,1.75,1.86,4.55-.95,2.8-2.8-3.14-3.32-7.69-5.31-12.25-5.41s-9.44,1.89-12.71,5.26c-1.77,1.83,1.02,4.63,2.8,2.8h0Z"/>
          <path class="cls-11" d="M146.07,327.64c-3.91,5.19-10.33,8.45-16.82,8.55s-12.96-2.98-17.18-8.06c-.68-.82-2.09-.71-2.8,0-.81,.81-.69,1.97,0,2.8,4.92,5.92,12.65,9.46,20.37,9.21s15.15-4.25,19.85-10.5c.64-.85,.14-2.21-.71-2.71-1.01-.59-2.06-.15-2.71,.71h0Z"/>
          <path class="cls-11" d="M154.42,305.57c.2,1.62-.11,3.3-1.03,4.83-.35,.58-1.67,2.69-4.35,3.3-2.87,.65-5.12-.9-5.54-1.22-3.84-2.95-4.41-9.29-.38-12.39,2.41-1.86,6.02-1.99,8.34,.03,1.66,1.45,2.72,3.4,2.97,5.45Z"/>
          <path class="cls-11" d="M104.58,305.57c-.2,1.62,.11,3.3,1.03,4.83,.35,.58,1.67,2.69,4.35,3.3,2.87,.65,5.12-.9,5.54-1.22,3.84-2.95,4.41-9.29,.38-12.39-2.41-1.86-6.02-1.99-8.34,.03-1.66,1.45-2.72,3.4-2.97,5.45Z"/>
          <path class="cls-1" d="M68.13,341.17c1.42,.24,2.9,.14,4.27-.31,2.53-.82,4.56-2.7,5.56-5.18,.24-.62,.42-1.23,.52-1.83,.6-3.51-.94-7.05-3.93-9-10.83-7.09-20.22-15.83-27.91-25.97-3.79-5.01-7.19-10.4-10.1-16.02-.23-.45-.5-.88-.81-1.28l.09-.12-1.01-.92c1.38-1.93,2.95-4.91,2.94-8.44,0-2.74-.99-5.36-1.85-7.34-.81-1.85-1.78-3.73-3.44-4.98-.72-.55-1.62-.94-2.53-1.1-1.24-.21-2.42,.03-3.31,.69-1.61,1.18-1.92,3.37-1.7,4.87,.05,.34,.1,.67,.16,.98-1.46-2.06-3.55-3.66-5.88-4.46-.56-.19-1.16-.35-1.76-.45-3.28-.56-6.78,.29-9.36,2.27-3.16,2.43-5.04,6.55-4.91,10.76,.12,3.95,1.94,7.9,5,10.84,2.76,2.66,6.6,4.52,10.81,5.24,.59,.1,1.17,.14,1.74,.13l.29,.83h.07c6.05,12.9,13.46,23.9,21.43,31.82,5.5,5.46,12.4,10.75,12.46,10.8,3.12,2.39,6.45,4.71,9.88,6.88,1.01,.64,2.11,1.06,3.28,1.26Z"/>
          <path class="cls-5" d="M20.89,289.35c.11,.31,.23,.61,.37,.92,4.39,9.36,11.42,21.88,21.41,31.8,5.51,5.48,12.41,10.76,12.41,10.76,3.46,2.65,6.79,4.93,9.89,6.89,4.62,2.92,10.75,.95,12.79-4.12,.23-.58,.4-1.18,.51-1.78,.58-3.37-.87-6.85-3.83-8.78-8.42-5.52-18.72-13.83-27.96-26.02-4.22-5.57-7.53-11.03-10.12-16.05-.48-.92-1.1-1.72-1.83-2.38"/>
          <path class="cls-8" d="M34.53,280.59c1.81-2.49,3.03-5.42,3.02-8.48,0-2.51-.84-4.95-1.84-7.26-.8-1.83-1.77-3.68-3.36-4.89-1.59-1.21-3.97-1.59-5.58-.41-1.39,1.02-1.87,2.95-1.62,4.67,.11,.77,.26,1.52,.47,2.26,.46,.82,.81,1.7,1.05,2.62-.46-.83-.8-1.71-1.05-2.62-1.39-2.53-3.73-4.55-6.47-5.49-3.64-1.25-7.87-.55-10.92,1.79-3.19,2.45-4.95,6.56-4.82,10.58,.12,4.02,2.03,7.9,4.93,10.69,2.9,2.79,6.73,4.52,10.7,5.19,.62,.1,1.24,.14,1.86,.12"/>
        </g>
      </g>
      <g>
        <path class="cls-12" d="M212.37,242.36c-1.25-2.52-3.32-4.59-5.83-5.84l-2.17-1.08,2.17-1.08c2.51-1.25,4.58-3.32,5.83-5.83l1.08-2.17,1.08,2.17c1.25,2.51,3.32,4.58,5.83,5.83l2.16,1.08-2.16,1.08c-2.51,1.25-4.58,3.32-5.83,5.84l-1.08,2.17-1.08-2.17Z"/>
        <path class="cls-3" d="M213.44,248.07h0c0-6.97-5.65-12.63-12.63-12.63h0c6.97,0,12.63-5.65,12.63-12.63h0c0,6.97,5.65,12.63,12.63,12.63h0c-6.97,0-12.63,5.65-12.63,12.63Z"/>
      </g>
    </g>
  </g>
</svg>