<?xml version="1.0" encoding="UTF-8"?>
<svg id="Layer_2" data-name="Layer 2" xmlns="http://www.w3.org/2000/svg" viewBox="0 0 34.53 36.37">
  <defs>
    <style>
      .cls-1 {
        fill: #4a69ff;
      }
    </style>
  </defs>
  <g id="Layer_1-2" data-name="Layer 1">
    <g>
      <path class="cls-1" d="M9.1,25.79v10.57H1.87v-11.89c2.35,.71,4.79,1.16,7.23,1.32Z"/>
      <path class="cls-1" d="M20.72,24.29v12.08h-7.23v-10.59c2.53-.19,4.96-.69,7.23-1.49Z"/>
      <path class="cls-1" d="M32.34,16v20.36h-7.24v-14.09c1.76-1.01,3.37-2.23,4.8-3.64,.86-.81,1.67-1.69,2.44-2.63Z"/>
      <path class="cls-1" d="M34.53,12.28L31.67,0l-10.69,6.68,2.8,1.16c-1.21,3.77-3.57,7.18-7,9.4-4.74,3.02-11.04,4.07-16.77,3.39,8.99,3.77,20.51,3.06,27.83-4.16,1.62-1.54,3.03-3.29,4.24-5.2l2.46,1.02Z"/>
    </g>
  </g>
</svg>