<?xml version="1.0" encoding="UTF-8"?>
<svg id="Layer_2" data-name="Layer 2" xmlns="http://www.w3.org/2000/svg" viewBox="0 0 40.21 40.21">
  <defs>
    <style>
      .cls-1 {
        fill: none;
        stroke: #4a69ff;
        stroke-linecap: round;
        stroke-linejoin: round;
        stroke-width: 2px;
      }
    </style>
  </defs>
  <g id="Layer_1-2" data-name="Layer 1">
    <path class="cls-1" d="M1,20.11c0,10.55,8.55,19.11,19.11,19.11s19.11-8.55,19.11-19.11S30.66,1,20.11,1,1,9.55,1,20.11Z"/>
    <line class="cls-1" x1="1" y1="20.11" x2="39.21" y2="20.11"/>
    <path class="cls-1" d="M20.11,39.21V1c-.95,.71-9.57,7.39-9.57,19.11,0,11.71,8.63,18.4,9.57,19.11Z"/>
    <path class="cls-1" d="M20.11,39.21V1c.95,.71,9.57,7.39,9.57,19.11,0,11.71-8.63,18.4-9.57,19.11Z"/>
    <g>
      <path class="cls-1" d="M5.97,7.34c2.26,1.26,7.3,3.68,14.14,3.66,6.77-.01,11.76-2.4,14.01-3.66"/>
      <path class="cls-1" d="M34.12,32.87c-2.26-1.26-7.3-3.68-14.14-3.66-6.77,.01-11.76,2.4-14.01,3.66"/>
    </g>
  </g>
</svg>