<?xml version="1.0" encoding="UTF-8"?>
<svg id="Layer_2" data-name="Layer 2" xmlns="http://www.w3.org/2000/svg" viewBox="0 0 24 24">
  <g id="Layer_1-2" data-name="Layer 1">
    <path fill="currentColor" d="M12,5c-1.05,0-2.02,.2-2.93,.54l2.48,2.49c.15-.02,.3-.03,.45-.03,2.2,0,4,1.8,4,4,0,.15-.01,.3-.03,.45l3.15,3.15c1.38-1.41,2.32-2.88,2.74-3.6-.94-1.61-4.49-7-9.86-7Z"/>
    <path fill="currentColor" d="M23,24c-.26,0-.51-.1-.71-.29L.29,1.71C-.1,1.32-.1,.69,.29,.3S1.32-.1,1.71,.3L23.71,22.3c.39,.39,.39,1.02,0,1.41-.2,.2-.45,.29-.71,.29Z"/>
    <path fill="currentColor" d="M15.43,14.03c-.33,.58-.82,1.07-1.41,1.41-.59,.36-1.28,.56-2.02,.56-2.21,0-4-1.79-4-4,0-.73,.2-1.43,.56-2.02,.33-.58,.82-1.07,1.4-1.42l-2.33-2.33c-.6,.35-1.15,.74-1.66,1.16-2,1.66-3.31,3.72-3.83,4.61,.94,1.61,4.48,7,9.86,7,1.63,0,3.08-.49,4.35-1.23,.6-.34,1.15-.73,1.66-1.16l-2.58-2.58Z"/>
    <path fill="currentColor" d="M13.93,12.53c-.19,.68-.73,1.22-1.42,1.4-.16,.05-.33,.07-.51,.07-1.11,0-2-.9-2-2,0-.18,.02-.35,.07-.51,.18-.69,.72-1.23,1.4-1.42l2.46,2.46Z"/>
  </g>
</svg>