<?xml version="1.0" encoding="UTF-8"?>
<svg id="Layer_2" data-name="Layer 2" xmlns="http://www.w3.org/2000/svg" viewBox="0 0 24 24">
  <defs>
    <style>
      .cls-1 {
        fill: #f8f9fa;
      }
    </style>
  </defs>
  <g id="Layer_1-2" data-name="Layer 1">
    <g>
      <path class="cls-1" d="M12,17.98c-3.3,0-5.98-2.68-5.98-5.98s2.68-5.98,5.98-5.98,5.98,2.68,5.98,5.98-2.68,5.98-5.98,5.98Zm0-10.52c-2.5,0-4.54,2.04-4.54,4.54s2.04,4.54,4.54,4.54,4.54-2.04,4.54-4.54-2.04-4.54-4.54-4.54Z"/>
      <path class="cls-1" d="M12,4.5c-.4,0-.72-.32-.72-.72V.72c0-.4,.32-.72,.72-.72s.72,.32,.72,.72V3.78c0,.4-.32,.72-.72,.72Z"/>
      <path class="cls-1" d="M17.81,6.91c-.18,0-.37-.07-.51-.21-.28-.28-.28-.74,0-1.02l2.17-2.17c.28-.28,.74-.28,1.02,0,.28,.28,.28,.74,0,1.02l-2.17,2.17c-.14,.14-.32,.21-.51,.21Z"/>
      <path class="cls-1" d="M23.28,12.72h-3.06c-.4,0-.72-.32-.72-.72s.32-.72,.72-.72h3.06c.4,0,.72,.32,.72,.72s-.32,.72-.72,.72Z"/>
      <path class="cls-1" d="M19.98,20.7c-.18,0-.37-.07-.51-.21l-2.17-2.17c-.28-.28-.28-.74,0-1.02,.28-.28,.74-.28,1.02,0l2.17,2.17c.28,.28,.28,.74,0,1.02-.14,.14-.32,.21-.51,.21Z"/>
      <path class="cls-1" d="M12,24c-.4,0-.72-.32-.72-.72v-3.06c0-.4,.32-.72,.72-.72s.72,.32,.72,.72v3.06c0,.4-.32,.72-.72,.72Z"/>
      <path class="cls-1" d="M4.02,20.7c-.18,0-.37-.07-.51-.21-.28-.28-.28-.74,0-1.02l2.17-2.17c.28-.28,.74-.28,1.02,0,.28,.28,.28,.74,0,1.02l-2.17,2.17c-.14,.14-.32,.21-.51,.21Z"/>
      <path class="cls-1" d="M3.78,12.72H.72c-.4,0-.72-.32-.72-.72s.32-.72,.72-.72H3.78c.4,0,.72,.32,.72,.72s-.32,.72-.72,.72Z"/>
      <path class="cls-1" d="M6.19,6.91c-.18,0-.37-.07-.51-.21l-2.17-2.17c-.28-.28-.28-.74,0-1.02,.28-.28,.74-.28,1.02,0l2.17,2.17c.28,.28,.28,.74,0,1.02-.14,.14-.32,.21-.51,.21Z"/>
    </g>
  </g>
</svg>