<?xml version="1.0" encoding="UTF-8"?>
<svg id="Layer_2" data-name="Layer 2" xmlns="http://www.w3.org/2000/svg" viewBox="0 0 2276.8 2089.29">
  <defs>
    <style>
      .cls-1 {
        fill: #4a69ff;
      }

      .cls-2 {
        fill: #f8f9fa;
      }
    </style>
  </defs>
  <g id="Layer_1-2" data-name="Layer 1">
    <g>
      <rect class="cls-1" x=".89" y="1.02" width="2275.02" height="2087.25" rx="384.52" ry="384.52" transform="translate(-1.41 1.54) rotate(-.08)"/>
      <g>
        <path class="cls-2" d="M1107.17,1036.73c19.37,11.36,43.37,11.33,62.71-.08l397.21-234.5,337.92-199.2c40.63-23.95,40.55-82.75-.15-106.59l-307.11-179.91c-19.35-11.33-43.32-11.3-62.63,.08l-365.96,215.71c-19.32,11.39-43.29,11.42-62.63,.08l-366.54-214.72c-19.35-11.33-43.32-11.3-62.63,.08l-306.63,180.74c-40.63,23.95-40.55,82.75,.14,106.59l338.46,198.28,397.84,233.42Z"/>
        <path class="cls-2" d="M1107.48,1268.74l-366.46-215.03c-19.37-11.36-43.37-11.33-62.71,.08l-306.7,181.08c-40.6,23.97-40.5,82.74,.18,106.57l338.53,198.31,397.88,233.08c19.35,11.33,43.32,11.3,62.63-.08l397.25-234.15,337.99-199.22c40.62-23.94,40.56-82.71-.11-106.57l-307.19-180.25c-19.37-11.36-43.37-11.33-62.71,.08l-365.88,216.02c-19.34,11.42-43.34,11.45-62.71,.08Z"/>
      </g>
    </g>
  </g>
</svg>