<?xml version="1.0" encoding="UTF-8"?>
<svg id="Layer_2" data-name="Layer 2" xmlns="http://www.w3.org/2000/svg" viewBox="0 0 224.37 41.9">
  <defs>
    <style>
      .cls-1 {
        fill: #4a69ff;
      }

      .cls-2 {
        fill: #111827;
      }

      .cls-3 {
        fill: #f8f9fa;
      }
    </style>
  </defs>
  <g id="Layer_1-2" data-name="Layer 1">
    <g>
      <path class="cls-2" d="M59.82,31.62l-3.78-20.79h3.41s1.36,9.06,1.36,9.06c.37,2.48,.61,4.85,.88,7.39h.09c.28-2.6,.73-4.85,1.2-7.42l1.67-9.05h2.71s1.63,8.92,1.63,8.92c.42,2.39,.83,4.72,1.1,7.54h.07c.29-2.84,.6-5.09,.92-7.47l1.32-8.99h3.22s-3.8,20.8-3.8,20.8h-3.35s-1.58-8.29-1.58-8.29c-.38-2.06-.73-4.41-.99-6.83h-.06c-.33,2.45-.68,4.72-1.13,6.89l-1.68,8.24h-3.2Z"/>
      <path class="cls-2" d="M86.22,22.11h-4.95s0,6.62,0,6.62h5.61s0,2.85,0,2.85h-8.9s-.03-20.78-.03-20.78h8.54s0,2.85,0,2.85h-5.24s0,5.72,0,5.72h4.95s0,2.75,0,2.75Z"/>
      <path class="cls-2" d="M89.57,11.1c1.11-.27,2.54-.4,4.09-.41,1.9,0,3.67,.31,4.96,1.45,1.02,.89,1.48,2.22,1.48,3.69,0,1.97-1.04,3.71-3.08,4.58v.1c2.41,.67,3.76,2.63,3.76,5.11,0,1.71-.55,3.08-1.5,4.1-1.21,1.35-3.24,2.01-6.23,2.01-1.53,0-2.66-.09-3.46-.22l-.03-20.41Zm3.29,8.36h.97c1.68,0,3.03-1.36,3.03-3.26,0-1.7-.8-3.02-2.85-3.01-.49,0-.89,.05-1.16,.14v6.14Zm.02,9.61c.27,.06,.61,.09,1.04,.09,2.01,0,3.47-1.21,3.47-3.58,0-2.44-1.68-3.64-3.57-3.65h-.95s0,7.15,0,7.15Z"/>
      <path class="cls-2" d="M111.36,26.14l-1.11,5.42h-3.19s4.6-20.8,4.6-20.8h3.85s4.33,20.78,4.33,20.78h-3.22s-1.11-5.41-1.11-5.41h-4.13Zm3.79-2.58l-.88-4.77c-.25-1.36-.53-3.28-.76-4.73h-.09c-.23,1.47-.53,3.45-.78,4.75l-.9,4.76h3.41Z"/>
      <path class="cls-2" d="M121.79,28.03c.78,.47,2.13,.83,3.23,.82,2.03,0,3.14-1.19,3.13-2.89,0-1.68-1.03-2.63-2.73-3.8-2.3-1.47-3.92-3.54-3.93-5.79,0-3.25,2.2-5.82,6.08-5.82,1.34,0,2.55,.39,3.11,.75l-.61,2.83c-.56-.37-1.45-.71-2.57-.71-1.87,0-2.76,1.28-2.76,2.52,0,1.61,.83,2.34,2.95,3.71,2.65,1.71,3.7,3.72,3.7,5.96,0,3.72-2.67,6.1-6.39,6.11-1.56,0-3.12-.44-3.77-.86l.55-2.83Z"/>
      <path class="cls-2" d="M133.48,28.01c.78,.47,2.13,.83,3.23,.82,2.03,0,3.14-1.19,3.13-2.89,0-1.68-1.03-2.63-2.73-3.8-2.3-1.47-3.92-3.54-3.93-5.79,0-3.25,2.2-5.82,6.08-5.82,1.34,0,2.55,.39,3.11,.75l-.61,2.83c-.56-.37-1.45-.71-2.57-.71-1.87,0-2.76,1.28-2.76,2.52,0,1.61,.83,2.34,2.95,3.71,2.65,1.71,3.7,3.72,3.7,5.96,0,3.72-2.67,6.1-6.39,6.11-1.56,0-3.12-.44-3.77-.86l.55-2.83Z"/>
      <path class="cls-2" d="M153.88,22.02h-4.95s0,6.62,0,6.62h5.61s0,2.85,0,2.85h-8.9s-.03-20.78-.03-20.78h8.54s0,2.85,0,2.85h-5.24s0,5.72,0,5.72h4.95s0,2.75,0,2.75Z"/>
      <path class="cls-2" d="M159.55,13.72h-3.73s0-3.02,0-3.02h10.77s0,3.01,0,3.01h-3.75s.02,17.78,.02,17.78h-3.29s-.02-17.77-.02-17.77Z"/>
      <path class="cls-1" d="M173.29,28.73c.7,.45,1.95,.84,2.99,.84,2.18,0,3.47-1.43,3.47-3.54,0-1.92-1.13-3.09-2.75-4.32-1.64-1.14-3.92-3.08-3.93-5.76,0-3.14,2.19-5.46,5.5-5.47,1.29,0,2.41,.41,2.91,.76l-.57,2.03c-.53-.37-1.4-.71-2.48-.71-2.04,0-3,1.55-3,2.98,0,2.06,1.08,2.88,3.06,4.27,2.51,1.77,3.62,3.68,3.62,5.98,0,3.59-2.51,5.84-5.82,5.85-1.42,0-2.92-.46-3.51-.91l.51-2.02Z"/>
      <path class="cls-1" d="M187.2,10.66l.02,13.93c0,3.76,1.26,5.01,2.84,5.01,1.76,0,2.9-1.35,2.89-5.02l-.02-13.93h2.37s.02,13.56,.02,13.56c0,5.4-2.21,7.48-5.29,7.48-3.13,0-5.17-2.04-5.18-7.19l-.02-13.85h2.37Z"/>
      <path class="cls-1" d="M201.35,10.64l.03,20.8h-2.37s-.03-20.79-.03-20.79h2.37Z"/>
      <path class="cls-1" d="M207.54,12.76h-3.8s0-2.13,0-2.13h9.98s0,2.12,0,2.12h-3.81s.03,18.67,.03,18.67h-2.37s-.03-18.66-.03-18.66Z"/>
      <path class="cls-1" d="M223.63,21.52h-5.2s.01,7.82,.01,7.82h5.93s0,2.06,0,2.06h-8.3s-.03-20.78-.03-20.78h7.92s0,2.05,0,2.05h-5.55s0,6.85,0,6.85h5.2s0,2,0,2Z"/>
    </g>
    <g>
      <rect class="cls-1" x=".02" y=".02" width="45.63" height="41.86" rx="7.71" ry="7.71" transform="translate(-.03 .03) rotate(-.08)"/>
      <g>
        <path class="cls-3" d="M22.2,20.79c.39,.23,.87,.23,1.26,0l7.97-4.7,6.78-3.99c.81-.48,.81-1.66,0-2.14l-6.16-3.61c-.39-.23-.87-.23-1.26,0l-7.34,4.33c-.39,.23-.87,.23-1.26,0l-7.35-4.31c-.39-.23-.87-.23-1.26,0l-6.15,3.62c-.81,.48-.81,1.66,0,2.14l6.79,3.98,7.98,4.68Z"/>
        <path class="cls-3" d="M22.21,25.45l-7.35-4.31c-.39-.23-.87-.23-1.26,0l-6.15,3.63c-.81,.48-.81,1.66,0,2.14l6.79,3.98,7.98,4.67c.39,.23,.87,.23,1.26,0l7.97-4.7,6.78-4c.81-.48,.81-1.66,0-2.14l-6.16-3.61c-.39-.23-.87-.23-1.26,0l-7.34,4.33c-.39,.23-.87,.23-1.26,0Z"/>
      </g>
    </g>
  </g>
</svg>