<?xml version="1.0" encoding="UTF-8"?>
<svg id="Layer_2" data-name="Layer 2" xmlns="http://www.w3.org/2000/svg" viewBox="0 0 249.78 446.03">
  <defs>
    <style>
      .cls-1, .cls-2, .cls-3, .cls-4, .cls-5, .cls-6, .cls-7 {
        fill: none;
      }

      .cls-1, .cls-2, .cls-4, .cls-5, .cls-8, .cls-6, .cls-7 {
        stroke-miterlimit: 10;
      }

      .cls-1, .cls-3, .cls-4, .cls-5, .cls-8, .cls-7 {
        stroke-width: 3.08px;
      }

      .cls-1, .cls-5, .cls-8, .cls-6 {
        stroke: #e0eeff;
      }

      .cls-9, .cls-8 {
        fill: #4a69ff;
      }

      .cls-2 {
        stroke-width: 3px;
      }

      .cls-2, .cls-3, .cls-4, .cls-5 {
        stroke-linecap: round;
      }

      .cls-2, .cls-3, .cls-4, .cls-7 {
        stroke: #1c324c;
      }

      .cls-3 {
        stroke-linejoin: round;
      }

      .cls-6 {
        stroke-width: 3.06px;
      }

      .cls-10 {
        fill: #dbe5ef;
      }

      .cls-11 {
        fill: #1c324c;
      }

      .cls-12 {
        fill: #f8f9fa;
      }

      .cls-13 {
        fill: #e0eeff;
      }
    </style>
  </defs>
  <g id="Layer_1-2" data-name="Layer 1">
    <path class="cls-2" d="M147.01,22.8c19.59-1.55,42.41-2.35,57.85,11.25,13.29,11.71,18.72,29.51,21.04,46.04,2.76,19.69-.59,41.4-15.61,56.25-16.54,16.35-38.37,13.88-59.96,12.62-26.58-1.55-53.96,1.97-80.03,6.66-8.29,1.49-16.55,3.17-24.78,4.96-10.33,2.25-20.97,5.04-29.01,11.59-8.04,6.54-12.69,17.88-8.11,26.93,3.71,7.33,12.5,11.38,21.05,11.98,8.56,.6,17.02-1.66,25.23-4.01,39.61-11.3,78.49-24.9,116.35-40.71,9.45-3.95,20.49-8.02,29.67-3.53,9.37,4.58,12.21,16.71,8.88,26.19-5.72,16.3-25.04,25.22-43.17,26.01s-35.8-4.65-53.55-8.21c-7.51-1.5-15.6-2.63-22.65,.25-7.05,2.88-12.08,11.27-8.42,17.65,3.96,6.9,14.32,6.99,22.42,5.34,10.29-2.09,20.42-5.57,28.91-11.47,8.49-5.9,15.24-14.39,17.44-24.14,5.04-22.3-13.93-45.24-7.49-67.22,1.56-5.32,4.73-10.37,9.55-13.47s11.43-3.95,16.59-1.38c7,3.48,9.55,12.28,7.61,19.54-1.94,7.26-7.37,13.2-13.12,18.34-20.52,18.35-47.48,30.15-75.54,33.05-11.9,1.23-25.81,.06-32.84-9.11-5.62-7.33-4.88-17.33-3.01-26.21,1.81-8.61,4.52-17.19,9.62-24.52,5.1-7.33,12.84-13.32,21.93-15.05,9.65-1.83,21.53,3.1,22.9,12.32,.82,5.52-2.37,11.06-6.91,14.61-4.54,3.55-10.26,5.44-15.93,6.93-18.12,4.75-37.21,6.13-55.88,4.05-8.99-1-18.85-3.4-23.76-10.6-5.26-7.71-2.61-18.49,3.77-25.4s15.64-10.75,24.75-13.87c29.74-10.2,61.48-15.19,93.11-14.64,19.68,.35,38.6-1.17,56.51-8.88,6.59-2.84,13.61-7.37,14.23-14.2,.34-3.79-1.5-7.56-4.26-10.32-2.76-2.77-6.37-4.65-10.06-6.15-25.77-10.5-70.76-.57-70.76-.57-23.67,2.65-47.35,5.3-71.02,7.95"/>
    <g>
      <ellipse class="cls-10" cx="134.46" cy="437.62" rx="83.83" ry="8.42"/>
      <path class="cls-9" d="M161.82,437.84c-4.95,0-9.93-.41-14.82-1.22-1.35-.22-2.61-.75-3.63-1.52-3.63-2.77-2.94-7.18-2.58-9.36v-.05s.02-.07,.02-.07c.68-4.09,.69-8.3,.71-12.36,.01-2.74,.03-5.56,.24-8.31,.86-11.5,.1-20.6-.51-27.91-.18-2.17-.4-4.39-.67-6.67-.21-1.82,.33-3.58,1.52-4.97,1.2-1.39,2.87-2.19,4.7-2.25l3.3-.11c.1,0,.19,0,.29,0,3.44,0,6.5,2.3,7.46,5.59,.43,1.47,.81,2.98,1.14,4.49,1.4,6.34,1.59,11.35,1.69,17.24,.14,8.27,.08,16.73-.19,25.14l-.03,.89c1.53-.3,3.1-.46,4.69-.46,4.61,0,9.17,1.33,12.83,3.75,3.52,2.33,5.54,5.12,5.99,8.29,.14,1.01,.08,2.05-.18,2.99-1.41,4.94-6.96,5.7-9.62,6.06-4.08,.56-8.24,.84-12.35,.84Z"/>
      <path class="cls-9" d="M110.49,439c-3.15,0-7.23-.38-13.56-1.01-6.94-.68-10.06-1.08-11.3-3.25-.7-1.24-.7-2.72-.7-5.4,0-3.22,.47-5.74,.67-6.67,.59-2.63,1.78-13.51,3.93-33.25,.7-6.42,1.2-13.03,1.47-19.65,.1-2.43,1.24-4.71,3.12-6.26,1.52-1.25,3.45-1.94,5.43-1.94,.43,0,.87,.03,1.3,.1l.42,.07c4.95,.76,8.6,4.95,8.69,9.94,.12,6.76-.15,13.2-.8,19.13-.05,.48-.12,1.1-.21,1.86l-.09,.8c-.31,2.66-.77,6.67-1.35,12.18-.35,3.39-.71,6.92-1.05,10.5l-.1,1.08c.1,0,.2,0,.3,0,4.39,0,8.24,1.02,11.43,3.04,1.85,1.16,5.28,3.33,6.22,7.44,.21,.93,.76,4.18-1.1,6.92-.84,1.25-2.49,2.82-7.78,3.92-1.46,.3-3.02,.44-4.93,.44Z"/>
      <path class="cls-4" d="M154.47,418.72c7.24-3.84,16.56-3.4,23.39,1.12,2.87,1.89,5.38,4.55,5.89,8.14,.14,.97,.09,1.96-.18,2.9-1.22,4.28-5.56,5.37-9.44,5.9-8.98,1.23-18.15,1.1-27.1-.38-1.28-.21-2.51-.7-3.54-1.49-3.59-2.74-2.84-7.07-2.47-9.27,1.12-6.81,.43-13.8,.95-20.69,.87-11.54,.09-20.81-.51-27.99-.2-2.4-.43-4.62-.67-6.63-.43-3.64,2.35-6.86,6.01-6.98l3.32-.11c3.45-.12,6.55,2.11,7.51,5.43,.4,1.37,.78,2.86,1.14,4.48,1.39,6.29,1.58,11.24,1.69,17.2,.12,6.93,.13,15.78-.22,26.21"/>
      <path class="cls-4" d="M97.01,418.97c2.6-.8,12.8-3.66,20.97,1.5,1.81,1.14,5.21,3.29,6.13,7.31,.15,.66,.82,3.96-1.07,6.74-.75,1.1-2.3,2.71-7.65,3.83-4.02,.84-8.87,.38-18.43-.57-6.6-.65-9.92-1.02-11.13-3.15-.67-1.18-.67-2.55-.67-5.28,0-3.61,.6-6.31,.67-6.63,.58-2.6,1.7-12.82,3.93-33.27,.55-5.02,1.14-11.65,1.46-19.66,.2-4.97,4.68-8.65,9.6-7.89,.14,.02,.28,.04,.42,.06,4.82,.75,8.42,4.85,8.51,9.73,.14,8.12-.29,14.43-.8,19.11-.24,2.15-.83,6.99-1.65,14.84-.52,4.97-.92,9.06-1.18,11.83"/>
      <path class="cls-9" d="M214.95,401.43c-2.81,0-5.62-.99-7.7-2.73-1.89-1.57-3.29-3.81-3.92-6.26-.05,.32-.12,.64-.19,.98-.33,1.49-1.4,3.42-3.33,3.95-.33,.09-.67,.14-1.02,.14-1.98,0-3.55-1.4-4.3-2.59-1.1-1.77-1.35-3.87-1.45-5.87-.1-2.17-.09-4.98,.87-7.54,1.25-3.33,3.81-5.57,5.8-6.89l-2.48-12.87,.21-.49c1.2-2.87,1.81-5.91,1.81-9.03v-34.43l3.3,5.9c1.9,3.41,3.49,6.5,4.72,9.2,5.73,12.62,7.9,26.73,8.7,36.62h.15l-.06,1.67c.55,.2,1.07,.44,1.58,.74,3.67,2.14,6.6,5.24,8.25,8.74,1.82,3.83,2.12,8.18,.83,11.92-1.37,3.98-4.6,7.18-8.42,8.33-1.07,.32-2.2,.49-3.36,.49Z"/>
      <path class="cls-9" d="M37.07,398.96c-1.16,0-2.28-.16-3.36-.49-3.82-1.15-7.04-4.34-8.41-8.32-1.28-3.75-.98-8.09,.83-11.93,1.39-2.95,3.66-5.59,6.54-7.63l-.3-1.9h.27c.01-.15,.03-.3,.05-.45,2.04-14.12,5.95-26.84,11.31-36.76,3.67-6.8,8.76-13.89,8.8-13.96,1.66-2.31,3.43-4.62,5.26-6.84v-40.51c0-13.2,10.74-23.94,23.94-23.94h93.74c13.2,0,23.94,10.74,23.94,23.94v82.05c0,13.2-10.74,23.94-23.94,23.94H82.01c-13.2,0-23.94-10.74-23.94-23.94v-7.57c-1.2,2.59-2.32,5.27-3.32,7.98-2.15,5.82-3.83,11.89-4.98,18.05,.22,.11,.45,.22,.67,.34,3.74,1.92,6.47,4.76,7.68,7.99,.96,2.57,.97,5.37,.87,7.53-.09,2.01-.33,4.11-1.44,5.88-.75,1.2-2.33,2.6-4.3,2.6-.35,0-.7-.05-1.03-.14-1.92-.53-2.99-2.46-3.32-3.95-.08-.34-.14-.67-.19-.99-.63,2.46-2.02,4.7-3.92,6.27-2.09,1.73-4.9,2.72-7.7,2.72Z"/>
      <path class="cls-11" d="M97.95,290.42c12.17,2.77,25.01-2.79,31.18-13.67,1.26-2.22-2.16-4.22-3.42-2-5.29,9.33-16.32,14.21-26.71,11.85-2.48-.56-3.54,3.25-1.05,3.82h0Z"/>
      <path class="cls-11" d="M173.1,286.6c-10.39,2.36-21.41-2.51-26.71-11.85-1.26-2.22-4.68-.22-3.42,2,6.17,10.88,19.01,16.44,31.18,13.67,2.48-.56,1.43-4.38-1.05-3.82h0Z"/>
      <path class="cls-11" d="M118.94,339.07c3.91-5.2,10.34-8.46,16.84-8.56s12.98,2.99,17.2,8.07c.68,.82,2.09,.71,2.8,0,.81-.81,.69-1.97,0-2.8-4.93-5.93-12.67-9.47-20.39-9.22s-15.16,4.26-19.87,10.51c-.64,.85-.14,2.21,.71,2.71,1.01,.59,2.06,.15,2.71-.71h0Z"/>
      <path class="cls-11" d="M110.03,305.35c.34,0,.6,.3,.59,.64-.04,.96,.06,2.61,1.06,4.27,.35,.58,1.68,2.7,4.36,3.31,2.88,.65,5.13-.91,5.55-1.23,1.56-1.2,2.6-2.98,3.13-4.87,.54-1.89,.59-3.88,.45-5.84-.05-.63-.12-1.27-.41-1.83-.05-.11-.56-.82-1.45-1.06-1.19-.32-1.95,.51-4.68,1.52,0,0-.04,.01-1.71,.56-1.5,.49-4.02,1.12-8.56,1.82-.58,.09-.99,.6-.95,1.18l.03,.45c.04,.58,.51,1.03,1.09,1.05,.5,.01,1.01,.03,1.51,.04Z"/>
      <path class="cls-11" d="M161.65,305.35c-.34,0-.6,.3-.59,.64,.04,.96-.06,2.61-1.06,4.27-.35,.58-1.68,2.7-4.36,3.31-2.88,.65-5.13-.91-5.55-1.23-1.56-1.2-2.6-2.98-3.13-4.87-.54-1.89-.59-3.88-.45-5.84,.05-.63,.12-1.27,.41-1.83,.05-.11,.56-.82,1.45-1.06,1.19-.32,1.95,.51,4.68,1.52,0,0,.04,.01,1.71,.56,1.5,.49,4.02,1.12,8.56,1.82,.58,.09,.99,.6,.95,1.18l-.03,.45c-.04,.58-.51,1.03-1.09,1.05-.5,.01-1.01,.03-1.51,.04Z"/>
      <path class="cls-4" d="M49.52,370.83c1.03-5.54,2.61-11.71,5.03-18.25,1.16-3.13,2.41-6.09,3.75-8.89,6.33-13.39,14.25-23.16,20.23-29.47"/>
      <path class="cls-7" d="M32.92,370.69c-.12-.77-.12-1.58,0-2.41,1.48-10.24,4.59-24.28,11.28-36.68,3.69-6.85,8.77-13.91,8.77-13.91,1.8-2.5,3.58-4.8,5.32-6.91v-40.59c0-13.1,10.62-23.72,23.72-23.72h93.74c13.1,0,23.72,10.62,23.72,23.72v82.05c0,13.1-10.62,23.72-23.72,23.72H82c-13.1,0-23.72-10.62-23.72-23.72v-8.55"/>
      <path class="cls-7" d="M197.46,361.79c.83,4.31,1.66,8.62,2.49,12.93"/>
      <path class="cls-7" d="M199.46,318.86c.92,1.51,4.78,7.95,7.59,14.14,5.82,12.83,7.97,27.05,8.75,37.37,.03,.33,.03,.66,.02,.99"/>
      <path class="cls-3" d="M49.52,370.83c.27,.13,.54,.26,.81,.4,3.32,1.71,6.28,4.39,7.59,7.88,.88,2.36,.97,4.93,.85,7.45-.1,2-.35,4.07-1.41,5.77-1.07,1.69-3.15,2.9-5.08,2.36-1.67-.46-2.8-2.1-3.17-3.79-.17-.76-.29-1.52-.37-2.28-.09-.94-.08-1.88,.05-2.82,.1,.94,.08,1.89-.05,2.82-.41,2.87-1.88,5.59-4.11,7.44-2.96,2.46-7.17,3.31-10.86,2.2-3.86-1.16-6.96-4.38-8.27-8.19-1.31-3.81-.9-8.12,.82-11.76,1.45-3.08,3.8-5.68,6.59-7.63"/>
      <path class="cls-3" d="M199.95,374.72c-2.58,1.68-4.76,4-5.83,6.86-.88,2.36-.97,4.93-.85,7.45,.1,2,.35,4.07,1.41,5.77,1.07,1.69,3.15,2.9,5.08,2.36,1.67-.46,2.8-2.1,3.17-3.79,.17-.76,.29-1.52,.36-2.28-.13-.93-.15-1.88-.05-2.82,.14,.95,.14,1.88,.05,2.82,.41,2.87,1.88,5.59,4.11,7.44,2.96,2.46,7.18,3.31,10.86,2.2,3.86-1.16,6.96-4.38,8.27-8.19s.9-8.12-.82-11.76c-1.72-3.64-4.69-6.62-8.17-8.65-.55-.32-1.12-.58-1.7-.78"/>
    </g>
    <g>
      <path class="cls-9" d="M15.11,47.59l-.07,.43-7.43,48.87c-.26,1.7,.16,3.41,1.18,4.79,1.02,1.39,2.52,2.29,4.23,2.55l54.35,8.28c.32,.05,.65,.07,.97,.07,3.16,0,5.9-2.36,6.37-5.48l7.36-48.37,.07-.44L15.11,47.59Zm54.39,24.38l-3.68,24.16c-.19,1.25-.77,2.38-1.61,3.25-.11,.11-.21,.21-.33,.31-1.07,.96-2.49,1.55-4.01,1.55-.29,0-.6-.02-.91-.07l-35.13-5.34c-1.58-.24-2.98-1.09-3.94-2.38-.4-.55-.71-1.16-.91-1.79-.05-.16-.09-.32-.12-.48-.16-.71-.19-1.46-.08-2.2l3.68-24.16c.24-1.59,1.09-2.98,2.38-3.94,1.04-.77,2.27-1.17,3.55-1.17,.3,0,.61,.02,.92,.07l35.13,5.34c1.58,.24,2.98,1.09,3.94,2.38,.95,1.29,1.34,2.88,1.11,4.47Z"/>
      <path class="cls-13" d="M15.04,48.02l1.23-8.06c.26-1.71,1.17-3.21,2.56-4.23,1.11-.82,2.43-1.25,3.81-1.25,.33,0,.66,.03,.99,.08l54.35,8.27c1.71,.26,3.21,1.17,4.23,2.56,1.02,1.38,1.44,3.09,1.18,4.79l-1.3,8.56L15.04,48.02Z"/>
      <path class="cls-9" d="M59.88,101.67c-.32,0-.64-.02-.96-.07l-35.13-5.34c-1.7-.26-3.2-1.17-4.22-2.55-.19-.26-.35-.53-.52-.85l-.66-1.25,19.01-16.27,8.8,12.68c.16,.23,.41,.38,.68,.41,.04,0,.08,0,.11,0,.24,0,.47-.09,.64-.24l4.96-4.42,12.1,16.22-1.84,.96c-.91,.48-1.94,.73-2.96,.73Z"/>
      <path class="cls-12" d="M68.76,67.24c-1.02-1.39-2.52-2.29-4.23-2.55l-35.13-5.34c-.32-.05-.65-.07-.98-.07-1.38,0-2.7,.44-3.82,1.25-1.39,1.02-2.29,2.52-2.55,4.23l-4.25,27.93,.78-.67,.42-.36,17.47-14.96c.18-.15,.4-.23,.64-.23,.04,0,.08,0,.12,0,.27,.04,.51,.18,.66,.41l8.82,12.71,4.99-4.46c.18-.15,.4-.24,.64-.24,.04,0,.07,0,.11,0,.26,.03,.51,.17,.67,.38l10.75,14.42,.39,.52,.29,.38,1.22-2.76c.23-.52,.39-1.06,.48-1.62l3.68-24.16c.25-1.7-.17-3.4-1.18-4.79Zm-15.53,7.05c.11-1.07,.62-2.03,1.44-2.7,.72-.59,1.6-.91,2.53-.91,.13,0,.27,0,.4,.02,2.19,.22,3.8,2.18,3.58,4.37-.11,1.07-.62,2.03-1.44,2.7-.72,.59-1.59,.91-2.52,.91-.14,0-.26,0-.4-.02-1.06-.11-2.02-.62-2.69-1.44-.68-.82-.99-1.86-.89-2.92Z"/>
      <path class="cls-9" d="M57.21,79.12c-.15,0-.29,0-.44-.02-1.18-.12-2.24-.68-2.99-1.6-.76-.92-1.1-2.08-.99-3.25,.12-1.17,.68-2.24,1.6-2.99,.8-.65,1.79-1.01,2.81-1.01,.15,0,.3,0,.44,.02,1.17,.12,2.24,.68,2.99,1.6,.76,.92,1.1,2.08,.99,3.25-.12,1.17-.68,2.24-1.6,2.99-.8,.65-1.79,1.01-2.81,1.01Z"/>
      <rect class="cls-7" x="10.47" y="39.8" width="70.04" height="67.44" rx="6.23" ry="6.23" transform="translate(-34.04 107.44) rotate(-81.35)"/>
      <rect class="cls-8" x="25.71" y="56.47" width="36.89" height="48" rx="6.23" ry="6.23" transform="translate(-42.04 112.02) rotate(-81.35)"/>
      <line class="cls-7" x1="15.3" y1="47.84" x2="81.89" y2="58.47"/>
      <path class="cls-1" d="M18.76,91.57l17.58-15.05c.54-.46,1.35-.35,1.75,.23l7.91,11.4c.41,.59,1.24,.68,1.77,.21l3.81-3.39c.52-.46,1.33-.38,1.75,.18l10.88,14.58"/>
      <circle class="cls-1" cx="57.21" cy="74.68" r="4.21"/>
      <g>
        <circle class="cls-11" cx="26.62" cy="42.39" r="2.4" transform="translate(-19.43 62.02) rotate(-80.95)"/>
        <path class="cls-11" d="M35.05,46.16c1.31,.21,2.53-.68,2.74-1.99s-.68-2.53-1.99-2.74-2.53,.68-2.74,1.99,.68,2.53,1.99,2.74Z"/>
        <path class="cls-11" d="M43.85,47.56c1.31,.21,2.53-.68,2.74-1.99s-.68-2.53-1.99-2.74-2.53,.68-2.74,1.99,.68,2.53,1.99,2.74Z"/>
      </g>
    </g>
    <g>
      <path class="cls-13" d="M104.05,32.43l-2.3-8.34c-.88-3.2,.86-6.6,3.96-7.76,.18-.07,.37-.13,.55-.18L159.26,1.56c1.66-.46,3.4-.24,4.9,.61,1.5,.85,2.58,2.23,3.04,3.89l2.17,7.87-65.31,18.5Z"/>
      <path class="cls-9" d="M178.52,69.33c-.18,.07-.36,.12-.55,.18l-53,14.6c-.82,.23-1.66,.29-2.51,.19-.83-.1-1.64-.37-2.38-.79-1.51-.86-2.58-2.24-3.04-3.9l-13.11-47.59L169.24,13.5l13.24,48.07c.88,3.19-.86,6.6-3.96,7.75Z"/>
      <rect class="cls-7" x="108.39" y="7.81" width="67.44" height="70.04" rx="6.23" ry="6.23" transform="translate(-6.27 39.28) rotate(-15.4)"/>
      <line class="cls-7" x1="169.09" y1="13.77" x2="104.2" y2="32.16"/>
      <line class="cls-5" x1="147.61" y1="62.2" x2="140.23" y2="34.2"/>
      <path class="cls-5" d="M130.5,42.75l-.73-2.78c-.45-1.7,.57-3.44,2.27-3.89l8.13-2.14"/>
      <path class="cls-5" d="M152.91,36.85l-.73-2.78c-.45-1.7-2.19-2.71-3.89-2.27l-8.13,2.14"/>
      <line class="cls-5" x1="143.32" y1="63.33" x2="152.23" y2="60.98"/>
      <g>
        <circle class="cls-11" cx="111.83" cy="22.22" r="2.4" transform="translate(-1.89 30.49) rotate(-15.4)"/>
        <path class="cls-11" d="M121.05,22.17c1.28-.35,2.02-1.67,1.67-2.95s-1.67-2.02-2.95-1.67-2.02,1.67-1.67,2.95,1.67,2.02,2.95,1.67Z"/>
        <path class="cls-11" d="M129.65,19.8c1.28-.35,2.02-1.67,1.67-2.95s-1.67-2.02-2.95-1.67-2.02,1.67-1.67,2.95c.35,1.28,1.67,2.02,2.95,1.67Z"/>
      </g>
    </g>
    <g>
      <path class="cls-9" d="M246.52,109.07h0s-66.19-15.06-66.19-15.06l-.1,.43-11.2,47.63c-.39,1.68-.11,3.41,.79,4.88,.89,1.44,2.31,2.46,3.99,2.87l53.54,12.6c3.46,.82,6.94-1.34,7.76-4.81l11.42-48.54Zm-20.17,18.98c-.84,2.87-2.86,5.19-5.7,6.52l-6.33,2.98,3.34,1.6s.33,.17,.33,.17c.75,.36,1.77,.86,2.38,1.87,.59,1.01,.72,2.29,.36,3.49-.37,1.17-1.14,2.08-2.16,2.57-4.12,1.95-9.36,2.37-14.37,1.15-.37-.09-.74-.19-1.1-.29l-.18-.06c-2.59-.75-5.04-1.95-7.27-3.55-2.29-1.64-4.17-3.61-5.6-5.86-2.86-4.54-3.66-9.72-2.23-14.6,1.42-4.88,4.87-8.82,9.72-11.11,4.75-2.24,10.43-2.81,15.57-1.57,.33,.08,.67,.17,1,.27,4.69,1.36,8.57,4.15,10.91,7.85,1.67,2.66,2.14,5.71,1.3,8.57Z"/>
      <path class="cls-13" d="M182.21,86.02c.39-1.68,1.42-3.1,2.88-4.01,1.47-.91,3.2-1.19,4.88-.79l53.52,12.59c1.7,.41,3.11,1.43,4.01,2.88,.91,1.47,1.19,3.2,.8,4.87l-1.87,7.94-66.19-15.06,1.98-8.42Z"/>
      <path class="cls-9" d="M204.09,148.83c-.37-.09-.74-.19-1.11-.3l-.18-.05c-2.66-.78-5.15-1.99-7.4-3.62-2.33-1.66-4.25-3.68-5.71-5.99-2.93-4.64-3.74-9.95-2.28-14.95,1.46-5,5-9.05,9.96-11.38,4.83-2.29,10.61-2.87,15.86-1.6,.34,.08,.68,.17,1.01,.27,4.8,1.4,8.77,4.26,11.17,8.04,1.75,2.78,2.22,5.95,1.35,8.94-.87,2.99-2.98,5.4-5.93,6.79l-3.37,1.59c-.36,.19-.57,.4-.63,.63-.05,.16-.05,.42,.16,.81l.03,.04c.25,.38,.31,.49,.99,.81l.14,.07c.79,.39,1.9,.92,2.58,2.04,.66,1.13,.8,2.55,.41,3.85-.41,1.31-1.26,2.3-2.4,2.84-4.26,2.02-9.47,2.44-14.66,1.18Z"/>
      <rect class="cls-7" x="173.63" y="88.1" width="70.04" height="67.44" rx="6.23" ry="6.23" transform="translate(42.29 297.03) rotate(-76.76)"/>
      <line class="cls-7" x1="246.25" y1="109.24" x2="180.49" y2="94.28"/>
      <path class="cls-1" d="M220.56,141.09c.62,1.05,.76,2.41,.37,3.67-.38,1.21-1.18,2.17-2.27,2.68-4.51,2.14-10.2,2.46-15.63,.87l-.17-.05c-2.63-.77-5.11-1.98-7.33-3.58-2.32-1.66-4.22-3.66-5.65-5.93-2.9-4.59-3.7-9.83-2.26-14.78,1.44-4.94,4.93-8.93,9.85-11.25,5.14-2.43,11.25-2.91,16.73-1.31,4.75,1.38,8.67,4.21,11.04,7.95,1.71,2.71,2.18,5.81,1.32,8.75s-2.92,5.3-5.81,6.66l-3.4,1.6c-.26,.13-.61,.37-.73,.76s.06,.76,.21,1.01c.28,.43,.37,.56,1.15,.92l.05,.03c.8,.39,1.88,.91,2.54,1.99Z"/>
      <path class="cls-13" d="M218.34,121.89c-.46,1.58-2.11,2.48-3.68,2.03s-2.47-2.11-2.01-3.69,2.1-2.48,3.67-2.02c1.56,.46,2.47,2.11,2.02,3.67Z"/>
      <path class="cls-13" d="M207.58,140.28c-.69,2.37-3.16,3.71-5.51,3.02s-3.73-3.15-3.04-5.52,3.16-3.71,5.53-3.02,3.71,3.16,3.02,5.51Z"/>
      <path class="cls-13" d="M198.35,132.19c-.46,1.58-2.1,2.48-3.67,2.02-1.56-.46-2.48-2.1-2.02-3.67s2.11-2.47,3.67-2.02c1.58,.46,2.47,2.11,2.02,3.67Z"/>
      <path class="cls-13" d="M200.31,122.83c-.46,1.56-2.1,2.48-3.67,2.02s-2.47-2.11-2.02-3.67,2.11-2.47,3.67-2.02,2.48,2.1,2.02,3.67Z"/>
      <path class="cls-13" d="M209.09,119.2c-.46,1.58-2.11,2.48-3.68,2.03s-2.49-2.11-2.03-3.69,2.11-2.47,3.69-2.01,2.47,2.11,2.02,3.67Z"/>
      <g>
        <circle class="cls-11" cx="193.3" cy="89.89" r="2.4" transform="translate(60.41 256.58) rotate(-76.38)"/>
        <path class="cls-11" d="M201.4,94.32c1.29,.31,2.58-.48,2.89-1.76s-.48-2.58-1.76-2.89-2.58,.48-2.89,1.76,.48,2.58,1.76,2.89Z"/>
        <path class="cls-11" d="M210.06,96.42c1.29,.31,2.58-.48,2.89-1.76,.31-1.29-.48-2.58-1.76-2.89-1.29-.31-2.58,.48-2.89,1.76s.48,2.58,1.76,2.89Z"/>
      </g>
    </g>
    <g>
      <path class="cls-9" d="M150.68,176.34c.96,3.43-1.06,7-4.49,7.94l-53.01,14.67c-1.67,.45-3.41,.23-4.88-.6-1.49-.85-2.57-2.24-3.04-3.89l-13.05-47.16-.11-.42,65.28-18.59,13.31,48.05Z"/>
      <path class="cls-13" d="M69.9,138.96c-.46-1.66-.25-3.4,.6-4.9,.85-1.5,2.24-2.58,3.9-3.04l52.99-14.67c1.69-.45,3.41-.24,4.9,.6,1.5,.85,2.58,2.23,3.04,3.89l2.17,7.86-65.29,18.59-2.31-8.34Z"/>
      <rect class="cls-7" x="76.58" y="122.63" width="67.44" height="70.04" rx="6.23" ry="6.23" transform="translate(-38.06 35.14) rotate(-15.47)"/>
      <line class="cls-7" x1="137.23" y1="128.56" x2="72.37" y2="147.03"/>
      <g>
        <circle class="cls-11" cx="81.49" cy="137.03" r="2.4" transform="translate(-32.86 25.94) rotate(-15.09)"/>
        <path class="cls-11" d="M90.72,137.02c1.28-.34,2.03-1.66,1.69-2.94s-1.66-2.03-2.94-1.69-2.03,1.66-1.69,2.94,1.66,2.03,2.94,1.69Z"/>
        <path class="cls-11" d="M99.33,134.7c1.28-.34,2.03-1.66,1.69-2.94-.34-1.28-1.66-2.03-2.94-1.69s-2.03,1.66-1.69,2.94,1.66,2.03,2.94,1.69Z"/>
      </g>
      <g>
        <path class="cls-13" d="M111.12,167.42l-4.52,19.17c-.95,3.51-6.12,2.01-5.03-1.47,0,0,6.51-18.59,6.51-18.59,.67-1.86,3.47-1.04,3.04,.89h0Z"/>
        <circle class="cls-6" cx="112.83" cy="155.93" r="10.49"/>
      </g>
    </g>
  </g>
</svg>