<?xml version="1.0" encoding="UTF-8"?>
<svg id="Layer_2" data-name="Layer 2" xmlns="http://www.w3.org/2000/svg" viewBox="0 0 97.34 79.38">
  <defs>
    <style>
      .cls-1 {
        fill: #4a69ff;
      }
    </style>
  </defs>
  <g id="Layer_1-2" data-name="Layer 1">
    <path class="cls-1" d="M29.27,79.38c-2.49,0-4.5-2.01-4.5-4.5V15.3L7.67,32.25c-1.76,1.75-4.61,1.74-6.36-.03-1.75-1.76-1.74-4.61,.03-6.36L26.1,1.3C27.39,.03,29.32-.35,31,.35c1.68,.7,2.77,2.34,2.77,4.15V74.88c0,2.49-2.01,4.5-4.5,4.5Z"/>
    <path class="cls-1" d="M68.07,79.38c-.58,0-1.17-.11-1.73-.35-1.68-.7-2.77-2.34-2.77-4.15V4.5C63.57,2.01,65.59,0,68.07,0s4.5,2.01,4.5,4.5v59.58l17.1-16.95c1.76-1.75,4.61-1.74,6.36,.03,1.75,1.76,1.74,4.61-.03,6.36l-24.77,24.55c-.86,.85-2,1.3-3.17,1.3Z"/>
  </g>
</svg>